HIERARCHY
ROOT root
{
	OFFSET 0.000000 0.000000 0.000000
	CHANNELS 6 Xposition Yposition Zposition Zrotation Yrotation Xrotation
	JOINT lhip
	{
		OFFSET 0.058581 -0.082280 -0.017664
		CHANNELS 3 Zrotation Yrotation Xrotation
		JOINT lknee
		{
			OFFSET 0.043451 -0.386469 0.008037
			CHANNELS 3 Zrotation Yrotation Xrotation
			JOINT lankle
			{
				OFFSET -0.014790 -0.426874 -0.037428
				CHANNELS 3 Zrotation Yrotation Xrotation
				JOINT ltoe
				{
					OFFSET 0.041054 -0.060286 0.122042
					CHANNELS 3 Zrotation Yrotation Xrotation
					End Site
					{
						OFFSET 0.000000 0.000000 0.000000
					}
				}
			}
		}
	}
	JOINT rhip
	{
		OFFSET -0.060310 -0.090513 -0.013543
		CHANNELS 3 Zrotation Yrotation Xrotation
		JOINT rknee
		{
			OFFSET -0.043257 -0.383688 -0.004843
			CHANNELS 3 Zrotation Yrotation Xrotation
			JOINT rankle
			{
				OFFSET 0.019056 -0.420046 -0.034562
				CHANNELS 3 Zrotation Yrotation Xrotation
				JOINT rtoe
				{
					OFFSET -0.034840 -0.062106 0.130323
					CHANNELS 3 Zrotation Yrotation Xrotation
					End Site
					{
						OFFSET 0.000000 0.000000 0.000000
					}
				}
			}
		}
	}
	JOINT lowerback
	{
		OFFSET 0.004439 0.124404 -0.038385
		CHANNELS 3 Zrotation Yrotation Xrotation
		JOINT upperback
		{
			OFFSET 0.004488 0.137956 0.026820
			CHANNELS 3 Zrotation Yrotation Xrotation
			JOINT chest
			{
				OFFSET -0.002265 0.056032 0.002855
				CHANNELS 3 Zrotation Yrotation Xrotation
				JOINT lowerneck
				{
					OFFSET -0.013390 0.211636 -0.033468
					CHANNELS 3 Zrotation Yrotation Xrotation
					JOINT upperneck
					{
						OFFSET 0.010113 0.088937 0.050410
						CHANNELS 3 Zrotation Yrotation Xrotation
						End Site
						{
							OFFSET 0.000000 0.000000 0.000000
						}
					}
				}
				JOINT lclavicle
				{
					OFFSET 0.071702 0.114000 -0.018898
					CHANNELS 3 Zrotation Yrotation Xrotation
					JOINT lshoulder
					{
						OFFSET 0.122921 0.045205 -0.019046
						CHANNELS 3 Zrotation Yrotation Xrotation
						JOINT lelbow
						{
							OFFSET 0.255332 -0.015649 -0.022946
							CHANNELS 3 Zrotation Yrotation Xrotation
							JOINT lwrist
							{
								OFFSET 0.265709 0.012698 -0.007375
								CHANNELS 3 Zrotation Yrotation Xrotation
								End Site
								{
									OFFSET 0.000000 0.000000 0.000000
								}
							}
						}
					}
				}
				JOINT rclavicle
				{
					OFFSET -0.082954 0.112472 -0.023707
					CHANNELS 3 Zrotation Yrotation Xrotation
					JOINT rshoulder
					{
						OFFSET -0.113228 0.046853 -0.008472
						CHANNELS 3 Zrotation Yrotation Xrotation
						JOINT relbow
						{
							OFFSET -0.260127 -0.014369 -0.031269
							CHANNELS 3 Zrotation Yrotation Xrotation
							JOINT rwrist
							{
								OFFSET -0.269108 0.006794 -0.006027
								CHANNELS 3 Zrotation Yrotation Xrotation
								End Site
								{
									OFFSET 0.000000 0.000000 0.000000
								}
							}
						}
					}
				}
			}
		}
	}
}
MOTION
Frames: 18
Frame Time: 0.033333
1.166191 0.177422 0.998629 -88.001035 2.592314 84.793905 0.502759 -0.329827 7.600703 -3.191124 -16.925690 1.235202 4.563541 7.605544 -13.814155 0.000000 -0.000000 0.000000 3.531582 -3.157173 5.538114 4.467804 2.709738 5.518017 4.291348 -4.243964 -7.953233 0.000000 -0.000000 0.000000 -2.111756 0.889158 6.407752 2.773276 -3.985340 3.458177 1.317026 -2.670477 4.244219 3.674273 -0.467329 6.547180 3.340890 -5.636812 8.041779 -18.790413 2.743989 2.625204 -45.323058 -12.338273 4.734869 16.848229 -45.346226 -4.979239 0.093973 -0.037587 -11.041579 23.419535 -3.354542 0.048253 61.563187 -0.924825 9.233897 -14.407071 26.089234 -4.114642 8.409919 -1.796042 -8.132204 
1.166289 0.177298 0.998084 -87.831628 2.718520 84.962446 0.691091 -0.474720 7.321272 -3.353193 -16.737984 1.399380 4.553572 7.338716 -13.993051 0.000000 -0.000000 0.000000 3.749483 -2.834465 5.368100 4.406163 2.589060 5.487820 4.326569 -4.424838 -7.959767 0.000000 -0.000000 0.000000 -2.066128 0.828149 6.102309 2.790791 -3.868121 3.303563 1.383973 -2.783952 4.643358 3.781761 -0.770725 6.133730 3.028995 -5.887312 8.332655 -18.841381 2.971807 3.067712 -48.278713 -11.839546 5.833881 17.066382 -44.253466 -3.319049 0.127567 -0.301853 -11.623470 23.344565 -3.657072 0.106645 61.816798 -0.436735 9.462187 -14.496741 25.994460 -3.677345 7.630464 -1.699713 -8.253230 
1.165809 0.176755 0.997707 -87.709805 2.725175 84.859861 0.757238 -0.378612 7.494493 -3.487404 -16.736946 1.356370 4.468043 7.207530 -14.072951 0.000000 -0.000000 0.000000 3.667611 -2.872837 5.444048 4.484604 2.401673 5.586746 4.299393 -4.347748 -7.899106 0.000000 -0.000000 0.000000 -2.058543 0.842322 6.120147 2.738205 -3.836854 3.355995 1.387082 -2.760875 4.687626 3.894232 -0.956888 5.987122 2.965567 -5.943811 8.465634 -19.280077 3.095275 3.318657 -50.562706 -11.086902 6.621254 16.735135 -42.775934 -1.918016 0.052746 -0.546706 -11.808960 23.335614 -3.730259 0.207228 62.033545 -0.068097 9.531626 -14.542912 25.927213 -3.596819 7.180513 -1.640571 -8.516590 
1.165183 0.176367 0.997417 -87.549412 2.751744 84.774767 0.792149 -0.313420 7.736413 -3.484210 -16.734462 1.157812 4.260044 7.029950 -14.118708 0.000000 -0.000000 0.000000 3.733229 -2.777484 5.500539 4.428438 2.307970 5.587074 4.213592 -4.296340 -7.840764 0.000000 -0.000000 0.000000 -2.059636 0.890444 6.211400 2.668859 -3.833302 3.411491 1.395329 -2.891206 4.544046 3.908703 -0.837320 5.974351 2.878867 -5.596339 8.595869 -20.045155 2.988565 3.567824 -52.825496 -10.287400 7.331683 15.839201 -40.319481 -0.437729 -0.264872 -0.780088 -11.620967 23.276458 -3.739370 0.328837 62.362660 0.154702 9.668980 -14.361590 25.765127 -3.639206 7.255350 -1.931646 -9.221258 
1.165148 0.176118 0.997274 -87.469575 2.782574 84.795152 0.828639 -0.303987 7.754328 -3.525401 -16.659975 1.132068 4.381318 6.966980 -14.207970 0.000000 -0.000000 0.000000 3.777780 -2.850811 5.371570 4.408969 2.369583 5.733341 4.151359 -4.243423 -7.965153 0.000000 -0.000000 0.000000 -2.114794 0.938537 6.170135 2.681595 -3.790470 3.435529 1.456970 -2.947332 4.630727 3.959983 -1.101445 5.661993 2.737084 -5.771183 8.563545 -20.706087 3.136335 3.477323 -53.990689 -9.809391 7.625460 15.150832 -38.672720 0.366590 -0.464569 -0.894097 -11.368779 23.322993 -3.765152 0.381442 62.367721 0.436871 9.752074 -14.335499 25.639621 -3.756470 7.113927 -1.993709 -9.341982 
1.165118 0.175624 0.997062 -87.376585 2.902344 84.844979 0.937535 -0.269155 7.717746 -3.576334 -16.684527 1.173143 4.298619 6.848075 -14.220338 0.000000 -0.000000 0.000000 3.892008 -2.764250 5.213953 4.428861 2.280676 5.857830 4.087599 -4.228621 -7.902964 0.000000 -0.000000 0.000000 -2.000448 0.878947 6.156866 2.631456 -3.732515 3.412709 1.458858 -2.919003 4.658402 3.912648 -1.074171 5.636810 2.652004 -5.596903 8.556966 -21.367441 3.194569 3.521074 -55.524087 -9.312707 7.895589 14.242838 -36.351320 1.344204 -0.825989 -1.031172 -10.941072 23.341339 -3.871639 0.365618 62.501177 0.714127 9.762950 -14.356632 25.522323 -3.837352 7.068009 -1.900287 -9.427561 
1.164866 0.175067 0.997084 -87.323752 2.912509 84.692088 0.927987 -0.117614 8.009012 -3.523102 -16.847541 0.984667 4.216872 6.833605 -14.305540 0.000000 -0.000000 0.000000 3.924598 -2.589419 5.385322 4.356509 2.232777 5.828097 4.078705 -4.274574 -7.949975 0.000000 -0.000000 0.000000 -1.962114 0.887545 6.292238 2.540320 -3.709731 3.506854 1.405263 -2.946741 4.595843 4.096350 -1.359341 5.580706 2.626704 -5.718202 8.669467 -22.229758 3.282849 3.506285 -56.776854 -8.854832 8.013009 13.260462 -33.845089 2.135913 -1.232533 -1.113665 -10.312239 23.381598 -3.883265 0.380564 62.657484 0.789106 9.838984 -14.490734 25.501441 -3.937515 7.050077 -1.812220 -9.480798 
1.164976 0.174714 0.997012 -87.395368 2.959151 84.740918 0.982766 -0.099672 7.987446 -3.595305 -16.775563 0.964633 4.305379 6.824111 -14.207013 0.000000 -0.000000 0.000000 3.982375 -2.372454 5.294061 4.362118 2.174861 5.840839 3.899268 -4.353696 -7.977745 0.000000 -0.000000 0.000000 -1.883590 0.908513 6.113214 2.493562 -3.673446 3.618614 1.351242 -3.002606 4.599326 4.156607 -1.541471 5.784889 2.541371 -5.630723 8.723892 -23.306717 3.251880 3.526994 -57.900241 -8.601033 8.072188 12.292386 -31.135170 2.713699 -1.791976 -1.068548 -9.611447 23.339656 -3.803588 0.621251 62.736545 0.914448 9.989947 -14.622122 25.462010 -4.018013 7.173832 -1.890657 -9.679789 
1.165425 0.173808 0.997211 -87.371341 2.931357 84.735227 0.828742 -0.143232 7.927144 -3.513136 -16.815235 1.104775 4.395069 6.871788 -14.318245 0.000000 -0.000000 0.000000 3.871504 -2.512009 5.147092 4.358303 2.171490 6.140838 3.841533 -4.252343 -8.179448 0.000000 -0.000000 0.000000 -1.794401 0.934895 6.113146 2.385698 -3.670817 3.620866 1.245793 -3.068732 4.676897 4.210550 -1.673322 6.151517 2.532434 -5.542090 8.838636 -24.231552 3.476092 3.432713 -58.945093 -8.318482 8.042636 11.404492 -28.524059 3.135665 -2.333247 -0.952534 -8.872978 23.223803 -3.857796 0.619666 62.856873 0.914314 10.136880 -14.573717 25.485589 -3.952179 7.248156 -1.824650 -9.673049 
1.165918 0.172965 0.997626 -87.626626 2.982323 84.675671 0.884501 0.063132 7.881902 -3.609878 -16.728662 1.318605 4.365930 6.811674 -14.332724 0.000000 -0.000000 0.000000 3.852834 -2.615283 5.138247 4.347455 2.241739 6.326464 3.759912 -4.168717 -8.173806 0.000000 -0.000000 0.000000 -1.556375 0.948446 6.156983 2.246522 -3.569913 3.658508 1.055674 -3.067154 4.732907 4.270860 -1.924288 6.233063 2.432499 -5.493142 8.997596 -25.536753 4.003986 3.163796 -59.907081 -7.957770 7.790520 10.303412 -25.305401 3.579510 -3.003221 -0.795948 -7.796231 23.133515 -4.211824 0.386481 62.931946 0.791131 10.375449 -14.447953 25.682956 -3.643213 7.456718 -1.767775 -9.513733 
1.166943 0.172079 0.998278 -87.957365 2.988176 84.693959 0.839464 0.104839 7.815264 -3.581313 -16.665129 1.289553 4.419032 6.903250 -14.186028 0.000000 -0.000000 0.000000 3.720568 -2.453559 5.098364 4.466849 2.263682 6.372137 3.793450 -4.146795 -8.162455 0.000000 -0.000000 0.000000 -1.321315 0.899859 6.145352 2.095980 -3.534158 3.654546 0.833757 -3.043215 4.801955 4.274946 -2.221584 6.523684 2.445877 -5.530129 9.147348 -26.513360 4.223339 3.074160 -60.538034 -7.821038 7.702309 9.454185 -22.917407 3.758212 -3.667884 -0.582269 -7.050324 23.134246 -4.239851 0.257721 62.905556 0.559994 10.589783 -14.553032 25.626554 -3.702540 7.681450 -1.461218 -9.678080 
1.167800 0.171696 0.998179 -88.032521 3.040011 84.816360 0.932361 0.134696 7.516600 -3.704133 -16.655537 1.463263 4.420323 6.864113 -14.117975 0.000000 -0.000000 0.000000 3.686965 -2.433950 4.941977 4.566093 2.221488 6.399045 3.780221 -4.185301 -8.110014 0.000000 -0.000000 0.000000 -1.337868 0.857992 5.944982 2.204366 -3.596193 3.719615 0.839444 -3.059072 4.850281 4.287705 -2.703155 7.275294 2.434728 -5.776981 9.373764 -26.188056 4.444445 3.209882 -60.950130 -7.758866 7.844297 9.602994 -23.364376 4.130302 -3.745039 -0.531374 -7.482529 23.007112 -4.365815 0.318070 62.771579 0.504579 10.592878 -14.453098 25.893421 -3.469264 7.649642 -1.423993 -9.759630 
1.168494 0.171147 0.998284 -88.137142 3.036917 84.764383 0.896428 0.185216 7.507842 -3.691847 -16.552496 1.471331 4.419584 6.847522 -14.169239 0.000000 -0.000000 0.000000 3.591757 -2.514151 4.952119 4.580308 2.267443 6.440012 3.919896 -4.072845 -8.209459 0.000000 -0.000000 0.000000 -1.362923 0.875653 5.988198 2.269506 -3.638081 3.919450 0.827177 -3.107312 4.837258 4.299851 -2.783131 7.118637 2.225198 -6.029104 9.574294 -26.179376 4.488336 3.091462 -60.999631 -7.720698 7.945198 9.687222 -23.459619 4.151252 -3.764282 -0.612719 -7.615519 23.135766 -4.328410 0.264726 62.539607 0.603795 10.729549 -14.316018 25.922877 -3.341082 7.537217 -1.565075 -9.565181 
1.168841 0.170517 0.998482 -88.152915 3.035125 84.666814 0.887725 0.250498 7.612483 -3.709877 -16.549864 1.415785 4.373576 6.754842 -14.085561 0.000000 -0.000000 0.000000 3.534597 -2.612882 5.048944 4.553686 2.257160 6.423415 3.958906 -3.967315 -8.164065 0.000000 -0.000000 0.000000 -1.411490 0.848183 6.066085 2.323158 -3.740746 4.067856 0.857737 -3.101299 4.822449 4.351363 -3.302117 7.578242 2.226372 -6.414617 9.763008 -26.237786 4.382864 3.244979 -61.000804 -7.798105 7.934445 9.809114 -23.503583 3.957517 -3.884753 -0.553479 -7.669711 23.094475 -4.220222 0.360563 62.531768 0.601073 10.614672 -14.393751 25.946891 -3.485272 7.668972 -1.526312 -9.603457 
1.168922 0.170126 0.998662 -88.179333 3.061411 84.577961 0.924148 0.349070 7.755107 -3.700366 -16.562440 1.312335 4.332833 6.682548 -14.084862 0.000000 -0.000000 0.000000 3.554287 -2.625757 5.173758 4.525970 2.256347 6.373117 3.992301 -3.948683 -8.191835 0.000000 -0.000000 0.000000 -1.398609 0.772031 6.187831 2.296365 -3.797157 4.142022 0.837211 -3.074247 4.866507 4.365800 -3.172339 7.586935 2.174080 -6.371588 9.818834 -26.252097 4.392033 3.251715 -60.860522 -7.769611 7.944574 9.689514 -23.653210 3.941849 -3.719736 -0.552161 -7.615364 23.182895 -4.207410 0.395235 62.496639 0.562051 10.566946 -14.404055 26.036437 -3.700996 7.489722 -1.569574 -9.652695 
1.169251 0.169884 0.998764 -88.264245 3.116907 84.533398 0.980192 0.422160 7.784965 -3.702767 -16.614471 1.314658 4.325173 6.719396 -14.134991 0.000000 -0.000000 0.000000 3.619585 -2.601759 5.219715 4.493222 2.261141 6.321697 4.018377 -3.953607 -8.117603 0.000000 -0.000000 0.000000 -1.412090 0.768809 6.306897 2.334141 -3.788087 4.190877 0.870980 -3.038980 4.899270 4.373677 -3.219219 7.763173 2.267592 -6.457000 9.802835 -26.218555 4.374533 3.251099 -60.838227 -7.785155 7.938671 9.602022 -23.712955 3.850175 -3.563003 -0.554016 -7.630863 23.205679 -4.167922 0.471824 62.469141 0.521209 10.480365 -14.418246 26.170195 -3.890169 7.426939 -1.636417 -9.743978 
1.169658 0.169272 0.998822 -88.414328 3.126140 84.568761 0.975998 0.494354 7.741842 -3.726445 -16.575100 1.274545 4.309208 6.707105 -14.077636 0.000000 -0.000000 0.000000 3.578723 -2.614600 5.151742 4.508724 2.304311 6.329000 4.021222 -3.851414 -8.202115 0.000000 -0.000000 0.000000 -1.414769 0.778464 6.333806 2.364718 -3.771298 4.206142 0.914511 -3.040236 4.898125 4.195873 -3.377507 7.849086 2.049748 -6.635861 9.987558 -26.155598 4.369190 3.269695 -60.896411 -7.681353 7.924468 9.544852 -23.836561 3.957792 -3.445689 -0.665699 -7.624713 23.157498 -4.205820 0.645489 62.388579 0.306502 10.599712 -14.337527 26.574377 -3.446656 7.327449 -1.383372 -9.466405 
1.169980 0.169081 0.998831 -88.547526 3.123435 84.654995 0.969991 0.561015 7.664191 -3.723900 -16.529467 1.199864 4.290335 6.754341 -14.037236 0.000000 -0.000000 0.000000 3.576289 -2.631087 5.032720 4.486036 2.356426 6.302536 3.972604 -3.802814 -8.113259 0.000000 -0.000000 0.000000 -1.408988 0.815069 6.380693 2.364038 -3.758022 4.147867 0.914742 -3.026725 4.828722 4.152261 -3.501678 8.204107 2.121025 -6.614047 9.883549 -26.108006 4.350742 3.317247 -60.934383 -7.633848 7.897366 9.530978 -23.679252 4.078587 -3.529485 -0.644505 -7.658458 23.118827 -4.258472 0.689845 62.440693 0.219771 10.558480 -14.275063 26.559680 -3.336980 7.373432 -1.387090 -9.480322 
